<?xml version="1.0" encoding="utf-8" ?>
<svg baseProfile="full" height="200mm" version="1.1" viewBox="0,0,200,200" width="200mm" xmlns="http://www.w3.org/2000/svg" xmlns:ev="http://www.w3.org/2001/xml-events" xmlns:xlink="http://www.w3.org/1999/xlink"><defs /><rect fill="#1a1a1a" height="200" width="200" x="0" y="0" /><rect fill="#1a1a1a" height="200" width="180" x="10" y="0" /><text alignment-baseline="middle" fill="#e1ed5e" style="dominant-baseline: central; font-size:9.0px; font-family:Arial;" text-anchor="middle" x="100.0" y="100.0">2021</text><line stroke="#e1ed5e" stroke-width="0.3" x1="100.0" x2="100.0" y1="15.0" y2="10.0" /><path d="M 100.0 14.0 a86.0,86.0 0 0,1 42.46469731375804,11.215312516191453" fill="none" id="id1" stroke="none" /><text fill="#e1ed5e" style="font-size:6.75px; font-family:Arial;" text-anchor="middle"><textPath startOffset="22.20632615414155" xlink:href="#id1">January</textPath></text><line stroke="#e1ed5e" stroke-width="0.3" x1="143.23703022742887" x2="145.7803849466894" y1="26.81831364943548" y2="22.513508569990506" /><path d="M 143.74570117128098 25.957352633546492 a86.0,86.0 0 0,1 28.547481713284135,27.462654790039103" fill="none" id="id2" stroke="none" /><text fill="#e1ed5e" style="font-size:6.75px; font-family:Arial;" text-anchor="middle"><textPath startOffset="19.985693538727396" xlink:href="#id2">February</textPath></text><path d="M 116.60985879189232 87.15038557335679 l 8.034834080785341 -6.2158577754158895 a31.158515963955946,31.158515963955946 0 0,0 0.32452938610610543,0.4270426312085892 l -8.14063940711556 6.076630368326266" fill="red" stroke="none" /><path d="M 116.82858285166822 87.43820079747576 l 24.7093972625122 -18.44448160388688 a51.83428634998331,51.83428634998331 0 0,0 0.5275678546031443,0.7196019607860088 l -25.02322772962897 18.016417199429377" fill="red" stroke="none" /><path d="M 117.65298651832404 88.62581576622439 l 13.098216931332091 -8.439452007527755 a36.581644231838915,36.581644231838915 0 0,0 0.33650305473998066,0.5322670212152582 l -13.241547582318027 8.212737338598291" fill="red" stroke="none" /><line stroke="#e1ed5e" stroke-width="0.3" x1="172.23445277983987" x2="176.4835382374775" y1="55.19839476539836" y2="52.563006222186495" /><path d="M 173.08426987136738 54.67131705675599 a86.0,86.0 0 0,1 12.851231095245387,41.99856678651699" fill="none" id="id3" stroke="none" /><text fill="#e1ed5e" style="font-size:6.75px; font-family:Arial;" text-anchor="middle"><textPath startOffset="22.20632615414155" xlink:href="#id3">March</textPath></text><path d="M 117.84615892207809 88.93136811851018 l 13.515693716705783 -8.38276959352333 a36.90423851373902,36.90423851373902 0 0,0 0.3301773044289831,0.5427246742045242 l -13.65798681942099 8.148877146111724" fill="red" stroke="none" /><path d="M 118.3937258080291 89.86733742301442 l 10.242408079825903 -5.642297059977059 a32.693692290577374,32.693692290577374 0 0,0 0.2672972463302787,0.4952612020337928 l -10.338013425374648 5.465154874610807" fill="red" stroke="none" /><path d="M 120.08093135843002 93.85539295169968 l 23.193518802211138 -7.097034323914678 a45.2550450550673,45.2550450550673 0 0,0 0.22152151226691127,0.7468604151213378 l -23.31224621158975 6.696744522046811" fill="red" stroke="none" /><path d="M 120.28053869075195 94.5502522615342 l 27.01105524434745 -7.2583593303950495 a48.96928468127712,48.96928468127712 0 0,0 0.21174241308320751,0.8159298927759422 l -27.13199398930096 6.792333012070257" fill="red" stroke="none" /><path d="M 120.45610955862082 95.25157060432595 l 19.52077156120958 -4.531311549826052 a41.039793080431636,41.039793080431636 0 0,0 0.15381247960499564,0.6895111864727913 l -19.59587842781661 4.194622193803296" fill="red" stroke="none" /><path d="M 120.6074358757038 95.95851677861258 l 23.51562477058583 -4.6118305801846615 a44.96358883079319,44.96358883079319 0 0,0 0.14241526483309264,0.7607880394066798 l -23.591525759328782 4.20636446331542" fill="red" stroke="none" /><path d="M 120.67395015179393 96.31383870115 l 33.18543064366945 -5.916955841830269 a54.708799644009346,54.708799644009346 0 0,0 0.15732202709356236,0.928523509395541 l -33.28236453228323 5.34484654411889" fill="red" stroke="none" /><path d="M 120.73433829027371 96.67025291283417 l 49.51092282297738 -7.9510061398986105 a71.14528868617198,71.14528868617198 0 0,0 0.18377202956116595,1.2108280631218773 l -49.640450745977844 7.097578964384651" fill="red" stroke="none" /><path d="M 120.78858239683441 97.02765380044208 l 27.153477211921654 -3.8823972339704977 a48.4296250973412,48.4296250973412 0 0,0 0.11089000660996164,0.8262593510981975 l -27.216283217589453 3.414419540807636" fill="red" stroke="none" /><path d="M 120.83666639777658 97.38593545837742 l 49.84040663238554 -6.2527295504271345 a71.23109355879409,71.23109355879409 0 0,0 0.1421557136293996,1.2179033413453937 l -49.94065269901852 5.393882470756888" fill="red" stroke="none" /><path d="M 120.87857604477298 97.74499172005257 l 50.35783931855499 -5.43894106475873 a71.6507064189565,71.6507064189565 0 0,0 0.1218842466754245,1.2273577305338792 l -50.44400069091264 4.5713078035204155" fill="red" stroke="none" /><path d="M 120.94382443527127 98.46500227214037 l 62.831473305813795 -4.6049931835789 a84.0,84.0 0 0,0 0.09327763598233796,1.442963742987859 l -62.90143153280055 3.5227703763380056" fill="red" stroke="none" /><path d="M 120.98425023603335 99.18683210126433 l 22.175079674280543 -0.8593141399003509 a43.19172321726555,43.19172321726555 0 0,0 0.022394508541752206,0.7431647134549907 l -22.186585877277942 0.47747927902036114" fill="red" stroke="none" /><line stroke="#e1ed5e" stroke-width="0.3" x1="184.98032266829074" x2="189.97916517819016" y1="98.17113171792111" y2="98.06355123074" /><path d="M 185.9800911702706 98.14961562048488 a86.0,86.0 0 0,1 -9.607161424134198,41.387399972396054" fill="none" id="id4" stroke="none" /><text fill="#e1ed5e" style="font-size:6.75px; font-family:Arial;" text-anchor="middle"><textPath startOffset="21.466115282336823" xlink:href="#id4">April</textPath></text><path d="M 120.95626037817324 101.35467743843564 l 37.007883913138 2.3923039930153576 a58.08512626543553,58.08512626543553 0 0,0 -0.07308613934996545,0.9972023042222161 l -36.9612212151237 -3.0289794337343436" fill="red" stroke="none" /><path d="M 120.89721153311464 102.0752229133903 l 18.157987390509724 1.8032009406673977 a39.24730225831572,39.24730225831572 0 0,0 -0.07254714028382786,0.6716964184637144 l -18.124257948724846 -2.1154936810159035" fill="red" stroke="none" /><path d="M 120.8583938346157 102.4346265915055 l 51.703212362632314 6.034885364731162 a73.05422182667705,73.05422182667705 0 0,0 -0.15653951073078254,1.2477739211228256 l -51.591671342654685 -6.9239770401413825" fill="red" stroke="none" /><path d="M 120.81339534386255 102.79330883721812 l 21.350905752358276 2.8654466383477395 a42.54232951385026,42.54232951385026 0 0,0 -0.1036532695971713,0.7249507261444185 l -21.298418431744505 -3.2325428364725672" fill="red" stroke="none" /><path d="M 120.76222939487914 103.15116336523771 l 13.229647827504136 2.007914505525589 a34.381154744687954,34.381154744687954 0 0,0 -0.09384130823802753,0.5843499159767213 l -13.19312476490482 -2.235343651195515" fill="red" stroke="none" /><path d="M 120.49622156327973 104.57218783832717 l 48.861809137445185 10.899831893754254 a71.06278785181888,71.06278785181888 0 0,0 -0.2766015267811838,1.191592138038813 l -48.66694704473345 -11.739292689141632" fill="red" stroke="none" /><path d="M 120.13307415673323 105.97154293290107 l 48.28808552900165 14.322421585458494 a71.3673601067972,71.3673601067972 0 0,0 -0.3594645722006195,1.1747510204325775 l -48.0343941842949 -15.151499578443127" fill="red" stroke="none" /><path d="M 119.79798401119884 107.00284435728193 l 48.46181379690238 17.141671550967935 a72.40412726665926,72.40412726665926 0 0,0 -0.4257215771677317,1.171402940223616 l -48.159567958729426 -17.973322288197682" fill="red" stroke="none" /><path d="M 118.64920377521936 109.65438752849418 l 12.978480102285342 6.7187467062164 a35.61446212036934,35.61446212036934 0 0,0 -0.2865225736264741,0.541992730450175 l -12.860905020433975 -6.94115445175271" fill="red" stroke="none" /><line stroke="#e1ed5e" stroke-width="0.3" x1="174.80103733775053" x2="179.2010983576182" y1="140.37084112569926" y2="142.7455964860345" /><path d="M 175.68104954172406 140.8457921977663 a86.0,86.0 0 0,1 -30.038265399797805,32.042727171017184" fill="none" id="id5" stroke="none" /><text fill="#e1ed5e" style="font-size:6.75px; font-family:Arial;" text-anchor="middle"><textPath startOffset="22.206326154141568" xlink:href="#id5">May</textPath></text><path d="M 117.14729908036423 112.12312394758627 l 28.19931283532271 19.936887036096177 a55.535209700745355,55.535209700745355 0 0,0 -0.5585789773074225,0.775817344782049 l -27.851954065639685 -20.419337986329356" fill="red" stroke="none" /><path d="M 115.80600337817218 113.82643327865902 l 15.665358760283029 13.703403226170723 a41.81313828012014,41.81313828012014 0 0,0 -0.47854370257415124,0.537648922849019 l -15.42715620806054 -13.97102631876061" fill="red" stroke="none" /><path d="M 115.07121518719521 114.62390073753431 l 30.20741171158485 29.310854162799558 a63.09054399822005,63.09054399822005 0 0,0 -0.7629731008901998,0.7728877230225348 l -29.698397985639115 -29.82648237980276" fill="red" stroke="none" /><path d="M 113.75828350139079 115.86535959552629 l 19.953588949770662 23.009473810990293 a51.456224274112806,51.456224274112806 0 0,0 -0.6741611306096476,0.5745347411189241 l -19.554562342583967 -23.349532942332164" fill="red" stroke="none" /><path d="M 113.20401910651253 116.32954008644616 l 19.731680901883166 24.40236352743114 a52.38175547891868,52.38175547891868 0 0,0 -0.7060125431723702,0.5608990634326185 l -19.308710865993444 -24.738396504868884" fill="red" stroke="none" /><line stroke="#e1ed5e" stroke-width="0.3" x1="143.8653032363475" x2="146.44561519142675" y1="172.8068346515853" y2="177.08958963109032" /><path d="M 144.38136562736335 173.6633856474863 a86.0,86.0 0 0,1 -40.68145358897372,12.25698825130547" fill="none" id="id6" stroke="none" /><text fill="#e1ed5e" style="font-size:6.75px; font-family:Arial;" text-anchor="middle"><textPath startOffset="21.466115282336833" xlink:href="#id6">June</textPath></text><path d="M 109.89434966115114 118.52300852407294 l 14.221993505760217 26.624701567890373 a51.1850928913116,51.1850928913116 0 0,0 -0.7807167099101668,0.40843408367455863 l -13.761585893323556 -26.86556507050965" fill="red" stroke="none" /><path d="M 108.92500713936063 119.00905698771935 l 11.331183277054535 24.13388642591637 a47.66158638335744,47.66158638335744 0 0,0 -0.7456360237823185,0.34228492738093924 l -10.914079257504797 -24.325358423631382" fill="red" stroke="none" /><path d="M 103.7750983002368 120.6578951692458 l 2.1812932307850836 11.936358555780416 a33.13403048169985,33.13403048169985 0 0,0 -0.5619390016825643,0.09770029841691263 l -1.9755052576304695 -11.972137432718334" fill="red" stroke="none" /><path d="M 101.62511606390274 120.93702456842531 l 0.9052513484389285 11.662717601442894 a32.697797307820665,32.697797307820665 0 0,0 -0.5615258737953603,0.03872611189125972 l -0.7043627138646378 -11.67657205785044" fill="red" stroke="none" /><line stroke="#e1ed5e" stroke-width="0.3" x1="102.19456741930631" x2="102.32365962044197" y1="184.97166512339345" y2="189.96999836594603" /><path d="M 102.22038585953345 185.97133177190398 a86.0,86.0 0 0,1 -42.740103519485714,-10.115201625700543" fill="none" id="id7" stroke="none" /><text fill="#e1ed5e" style="font-size:6.75px; font-family:Arial;" text-anchor="middle"><textPath startOffset="22.20632615414155" xlink:href="#id7">July</textPath></text><line stroke="#e1ed5e" stroke-width="0.3" x1="58.666819895761336" x2="56.23545636021788" y1="174.27360380694188" y2="178.64263932499728" /><path d="M 58.180547188652646 175.14741091055294 a86.0,86.0 0 0,1 -31.652253787137756,-30.449443065178592" fill="none" id="id8" stroke="none" /><text fill="#e1ed5e" style="font-size:6.75px; font-family:Arial;" text-anchor="middle"><textPath startOffset="22.20632615414155" xlink:href="#id8">August</textPath></text><line stroke="#e1ed5e" stroke-width="0.3" x1="26.63291911575756" x2="22.317208475507996" y1="142.92168965132927" y2="145.44649492493687" /><path d="M 25.769776987707644 143.4266507060508 a86.0,86.0 0 0,1 -11.730757126820373,-40.83630448921669" fill="none" id="id9" stroke="none" /><text fill="#e1ed5e" style="font-size:6.75px; font-family:Arial;" text-anchor="middle"><textPath startOffset="21.46611528233685" xlink:href="#id9">September</textPath></text><line stroke="#e1ed5e" stroke-width="0.3" x1="15.007084014347285" x2="10.007500721073583" y1="101.09737516637583" y2="101.16192664675087" /><path d="M 14.007167355692545 101.11028546245083 a86.0,86.0 0 0,1 10.666146001902534,-42.60595125391555" fill="none" id="id10" stroke="none" /><text fill="#e1ed5e" style="font-size:6.75px; font-family:Arial;" text-anchor="middle"><textPath startOffset="22.20632615414155" xlink:href="#id10">October</textPath></text><line stroke="#e1ed5e" stroke-width="0.3" x1="26.266209847984243" x2="21.928928074336255" y1="57.711370442889674" y2="55.22380399835377" /><path d="M 25.398753493254645 57.213857153982495 a86.0,86.0 0 0,1 29.58750427330803,-30.492523968695096" fill="none" id="id11" stroke="none" /><text fill="#e1ed5e" style="font-size:6.75px; font-family:Arial;" text-anchor="middle"><textPath startOffset="21.46611528233685" xlink:href="#id11">November</textPath></text><line stroke="#e1ed5e" stroke-width="0.3" x1="56.762969772571076" x2="54.21961505331055" y1="26.818313649435495" y2="22.513508569990535" /><path d="M 56.25429882871897 25.957352633546506 a86.0,86.0 0 0,1 42.265352541879196,-11.944610805530505" fill="none" id="id12" stroke="none" /><text fill="#e1ed5e" style="font-size:6.75px; font-family:Arial;" text-anchor="middle"><textPath startOffset="22.20632615414155" xlink:href="#id12">December</textPath></text></svg>